<?xml version="1.0" encoding="UTF-8"?>
<svg id="uuid-a72338a4-561d-4d17-9c49-c4abcacb3b8c" data-name="Layer 1" xmlns="http://www.w3.org/2000/svg" viewBox="0 0 137.11 31.12">
  <defs>
    <style>
      .uuid-e2858882-ded4-4006-a80a-e18796ff23a5 {
        fill: #fff;
      }
    </style>
  </defs>
  <path class="uuid-e2858882-ded4-4006-a80a-e18796ff23a5" d="M4.86,8.06c0,.37-.06,.7-.18,.98-.12,.28-.31,.51-.58,.67-.27,.16-.61,.24-1.04,.24H0v2.74H3.26c.99,0,1.83-.18,2.52-.55,.69-.37,1.21-.87,1.58-1.49,.36-.62,.55-1.31,.55-2.05V.21h-3.05v7.86Z"/>
  <path class="uuid-e2858882-ded4-4006-a80a-e18796ff23a5" d="M28.68,11.02c.53-.59,.94-1.28,1.22-2.06s.42-1.62,.42-2.5-.14-1.73-.42-2.51-.69-1.47-1.22-2.05c-.53-.59-1.19-1.05-1.96-1.39-.77-.33-1.66-.5-2.65-.5s-1.9,.17-2.68,.5c-.78,.34-1.44,.8-1.97,1.39-.53,.59-.94,1.27-1.21,2.05s-.42,1.62-.42,2.51,.14,1.72,.42,2.5,.68,1.47,1.21,2.06c.53,.6,1.19,1.06,1.97,1.4,.78,.33,1.67,.5,2.68,.5s1.88-.17,2.65-.5c.77-.34,1.43-.8,1.96-1.4Zm-2.8-1.32c-.47,.32-1.08,.48-1.83,.48s-1.36-.16-1.83-.48c-.47-.32-.82-.76-1.04-1.32-.22-.56-.34-1.21-.34-1.93s.11-1.39,.34-1.94c.23-.55,.57-.99,1.04-1.31,.47-.32,1.08-.48,1.83-.48s1.36,.16,1.83,.48c.47,.32,.82,.75,1.05,1.31,.23,.55,.35,1.2,.35,1.94s-.12,1.37-.35,1.93c-.23,.56-.58,1-1.05,1.32Z"/>
  <path class="uuid-e2858882-ded4-4006-a80a-e18796ff23a5" d="M48.05,8.1c0,.42-.08,.78-.25,1.09-.17,.31-.43,.55-.79,.73-.36,.17-.82,.26-1.39,.26s-1-.09-1.36-.26c-.36-.17-.63-.42-.79-.73s-.24-.68-.24-1.09V.21h-3.04v7.99c0,.87,.21,1.66,.64,2.37s1.05,1.28,1.86,1.71c.81,.43,1.79,.64,2.95,.64s2.14-.21,2.96-.64c.82-.43,1.43-1,1.86-1.71s.63-1.5,.63-2.37V.21h-3.03v7.89Z"/>
  <path class="uuid-e2858882-ded4-4006-a80a-e18796ff23a5" d="M69.89,7.79c.7-.36,1.22-.86,1.58-1.48,.35-.62,.53-1.31,.53-2.05s-.18-1.43-.53-2.05c-.35-.61-.88-1.1-1.58-1.46-.7-.36-1.56-.55-2.59-.55h-5.88V12.69h3.03v-4.35h2.3l2.09,4.35h3.33l-2.46-4.82c.06-.03,.12-.05,.18-.08Zm-5.44-4.85h2.81c.63,0,1.07,.11,1.32,.33,.24,.22,.36,.55,.36,.99s-.12,.79-.36,1.01-.68,.33-1.32,.33h-2.81V2.95Z"/>
  <polygon class="uuid-e2858882-ded4-4006-a80a-e18796ff23a5" points="91.66 9.22 86.35 .21 85.02 .21 82.99 .21 81.98 .21 81.98 12.69 85.02 12.69 85.02 3.66 90.32 12.69 91.66 12.69 93.7 12.69 94.71 12.69 94.71 .21 91.66 .21 91.66 9.22"/>
  <path class="uuid-e2858882-ded4-4006-a80a-e18796ff23a5" d="M118.03,12.69L112.85,.21h-3.49l-5.2,12.49h3.24l1.08-2.76h5.22l1.08,2.76h3.24Zm-8.52-5.36l1.59-4.04,1.59,4.04h-3.17Z"/>
  <polygon class="uuid-e2858882-ded4-4006-a80a-e18796ff23a5" points="130.55 9.95 130.55 .21 127.52 .21 127.52 12.69 129.74 12.69 130.55 12.69 137.11 12.69 137.11 9.95 130.55 9.95"/>
  <path class="uuid-e2858882-ded4-4006-a80a-e18796ff23a5" d="M21.28,27.86s-.09-.05-.13-.08c0,0,0,0,.01,0,.19-.16,.33-.34,.45-.55,.11-.21,.17-.45,.17-.72,0-.33-.08-.63-.23-.91s-.37-.49-.66-.65c-.29-.16-.64-.24-1.05-.24h-3.31v6.3h3.49c.41,0,.76-.08,1.05-.25,.29-.16,.51-.38,.66-.66,.15-.28,.23-.58,.23-.92,0-.28-.06-.53-.18-.75-.12-.22-.28-.42-.48-.58Zm-1.55-1.77c.17,0,.29,.05,.38,.14,.08,.1,.12,.22,.12,.38s-.04,.28-.12,.37c-.08,.1-.21,.14-.38,.14h-1.67v-1.04h1.67Zm.55,3.38c-.08,.1-.21,.16-.39,.16h-1.83v-1.16h1.83c.18,0,.31,.05,.39,.16,.08,.11,.13,.25,.13,.42s-.04,.32-.13,.42Z"/>
  <polygon class="uuid-e2858882-ded4-4006-a80a-e18796ff23a5" points="30.8 24.7 29.28 27.2 27.77 24.7 26.04 24.7 28.5 28.59 28.51 28.59 28.51 31.01 30.06 31.01 30.06 28.57 32.52 24.7 30.8 24.7"/>
  <path class="uuid-e2858882-ded4-4006-a80a-e18796ff23a5" d="M47.4,27.8c-.24-.15-.48-.27-.73-.35-.25-.09-.47-.16-.66-.21-.33-.09-.6-.17-.82-.24-.22-.07-.38-.14-.49-.23-.11-.09-.16-.21-.16-.36,0-.09,.03-.17,.09-.25,.06-.08,.15-.14,.28-.18,.12-.04,.3-.07,.51-.07,.39,0,.67,.09,.84,.26,.17,.17,.27,.4,.32,.7h1.55c-.06-.44-.2-.83-.41-1.17-.21-.34-.5-.61-.87-.81-.37-.2-.84-.29-1.4-.29s-1.03,.08-1.4,.24c-.37,.16-.65,.38-.82,.65s-.27,.58-.27,.91c0,.37,.08,.68,.24,.92,.16,.24,.39,.44,.7,.6,.31,.16,.68,.31,1.13,.45,.2,.06,.41,.12,.6,.17,.2,.05,.38,.1,.53,.16,.16,.06,.28,.13,.37,.21,.09,.09,.14,.2,.14,.34,0,.19-.08,.33-.25,.42-.17,.09-.42,.14-.76,.14-.32,0-.57-.04-.77-.14-.2-.09-.35-.22-.45-.39s-.17-.37-.21-.6h-1.54c.07,.47,.21,.89,.43,1.26,.22,.37,.52,.66,.92,.87,.39,.21,.9,.32,1.52,.32,.9,0,1.57-.15,2-.46,.43-.31,.65-.77,.65-1.4,0-.35-.08-.64-.23-.88-.15-.24-.35-.43-.58-.58Z"/>
  <path class="uuid-e2858882-ded4-4006-a80a-e18796ff23a5" d="M57.12,28.69c0,.21-.04,.39-.13,.55-.08,.16-.22,.28-.4,.37-.18,.09-.41,.13-.7,.13s-.5-.04-.69-.13-.32-.21-.4-.37c-.08-.16-.12-.34-.12-.55v-3.98h-1.53v4.04c0,.44,.11,.84,.32,1.2,.22,.36,.53,.65,.94,.86,.41,.22,.9,.32,1.49,.32s1.08-.11,1.49-.32c.41-.22,.72-.5,.94-.86,.21-.36,.32-.76,.32-1.2v-4.04h-1.53v3.98Z"/>
  <polygon class="uuid-e2858882-ded4-4006-a80a-e18796ff23a5" points="68.76 29.25 66.08 24.7 65.4 24.7 64.38 24.7 63.87 24.7 63.87 31.01 65.4 31.01 65.4 26.45 68.08 31.01 68.76 31.01 69.79 31.01 70.3 31.01 70.3 24.7 68.76 24.7 68.76 29.25"/>
  <path class="uuid-e2858882-ded4-4006-a80a-e18796ff23a5" d="M79.9,27.8c-.24-.15-.48-.27-.73-.35-.25-.09-.47-.16-.66-.21-.33-.09-.6-.17-.82-.24-.22-.07-.38-.14-.49-.23-.11-.09-.16-.21-.16-.36,0-.09,.03-.17,.09-.25,.06-.08,.15-.14,.28-.18,.12-.04,.3-.07,.51-.07,.39,0,.67,.09,.84,.26,.17,.17,.27,.4,.32,.7h1.55c-.06-.44-.2-.83-.41-1.17-.21-.34-.5-.61-.87-.81-.37-.2-.84-.29-1.4-.29s-1.03,.08-1.4,.24c-.37,.16-.65,.38-.82,.65s-.27,.58-.27,.91c0,.37,.08,.68,.24,.92,.16,.24,.39,.44,.7,.6,.31,.16,.68,.31,1.13,.45,.2,.06,.41,.12,.6,.17,.2,.05,.38,.1,.53,.16,.16,.06,.28,.13,.37,.21,.09,.09,.14,.2,.14,.34,0,.19-.08,.33-.25,.42-.17,.09-.42,.14-.76,.14-.32,0-.57-.04-.77-.14-.2-.09-.35-.22-.45-.39s-.17-.37-.21-.6h-1.54c.07,.47,.21,.89,.43,1.26,.22,.37,.52,.66,.92,.87,.39,.21,.9,.32,1.52,.32,.9,0,1.57-.15,2-.46,.43-.31,.65-.77,.65-1.4,0-.35-.08-.64-.23-.88-.15-.24-.35-.43-.58-.58Z"/>
  <path class="uuid-e2858882-ded4-4006-a80a-e18796ff23a5" d="M90.04,24.99c-.35-.19-.79-.29-1.31-.29h-3.02v6.3h1.53v-2.02h1.49c.52,0,.96-.1,1.31-.29,.35-.19,.62-.45,.8-.78,.18-.33,.27-.69,.27-1.08s-.09-.75-.27-1.07-.44-.58-.8-.77Zm-.65,2.42c-.12,.13-.34,.19-.67,.19h-1.47v-1.52h1.47c.33,0,.56,.06,.67,.19,.12,.13,.18,.31,.18,.57s-.06,.45-.18,.57Z"/>
  <polygon class="uuid-e2858882-ded4-4006-a80a-e18796ff23a5" points="97.14 24.7 96.02 24.7 96.02 31.01 97.14 31.01 97.55 31.01 100.86 31.01 100.86 29.62 97.55 29.62 97.55 28.49 100.51 28.49 100.51 27.1 97.55 27.1 97.55 26.09 100.86 26.09 100.86 24.7 97.55 24.7 97.14 24.7"/>
  <polygon class="uuid-e2858882-ded4-4006-a80a-e18796ff23a5" points="107.51 24.7 105.98 24.7 105.98 31.01 107.1 31.01 107.51 31.01 110.82 31.01 110.82 29.62 107.51 29.62 107.51 24.7"/>
  <polygon class="uuid-e2858882-ded4-4006-a80a-e18796ff23a5" points="117.27 24.7 115.74 24.7 115.74 31.01 116.86 31.01 117.27 31.01 120.58 31.01 120.58 29.62 117.27 29.62 117.27 24.7"/>
</svg>